G04 #@! TF.FileFunction,Soldermask,Bot*
%FSLAX46Y46*%
G04 Gerber Fmt 4.6, Leading zero omitted, Abs format (unit mm)*
G04 Created by KiCad (PCBNEW 4.0.7) date 03/03/18 20:57:52*
%MOMM*%
%LPD*%
G01*
G04 APERTURE LIST*
%ADD10C,0.100000*%
%ADD11C,3.600000*%
%ADD12R,1.500000X2.900000*%
%ADD13O,1.500000X2.900000*%
%ADD14O,2.900000X1.500000*%
%ADD15R,2.000000X2.000000*%
%ADD16C,2.000000*%
%ADD17R,2.400000X2.400000*%
%ADD18C,2.400000*%
%ADD19O,2.000000X2.000000*%
%ADD20R,2.200000X2.200000*%
%ADD21C,2.200000*%
%ADD22R,2.100000X2.100000*%
%ADD23O,2.100000X2.100000*%
%ADD24C,2.900000*%
%ADD25C,3.400000*%
%ADD26C,1.400000*%
%ADD27R,1.400000X1.400000*%
%ADD28C,1.700000*%
%ADD29C,2.600000*%
%ADD30R,2.900000X1.500000*%
%ADD31O,1.300000X1.900000*%
%ADD32R,1.300000X1.900000*%
%ADD33O,2.940000X2.432000*%
%ADD34R,2.398980X2.398980*%
%ADD35O,2.398980X2.398980*%
%ADD36C,1.500000*%
%ADD37O,2.398980X3.900120*%
%ADD38R,2.900000X2.900000*%
G04 APERTURE END LIST*
D10*
D11*
X149250000Y-160250000D03*
X120250000Y-109750000D03*
X140000000Y-140500000D03*
X169750000Y-136500000D03*
X195500000Y-156000000D03*
D12*
X126500000Y-129200000D03*
D13*
X128500000Y-129200000D03*
X130500000Y-129200000D03*
X132500000Y-129200000D03*
X134500000Y-129200000D03*
X136500000Y-129200000D03*
X138500000Y-129200000D03*
X140500000Y-129200000D03*
X140500000Y-113800000D03*
X138500000Y-113900000D03*
X136500000Y-113800000D03*
X134500000Y-113800000D03*
X132500000Y-113800000D03*
X130500000Y-113800000D03*
X128500000Y-113800000D03*
X126500000Y-113800000D03*
D14*
X142200000Y-126510000D03*
X142200000Y-124510000D03*
X142200000Y-122510000D03*
X142200000Y-120510000D03*
X142200000Y-118510000D03*
X142200000Y-116510000D03*
D15*
X179000000Y-158500000D03*
D16*
X179000000Y-156000000D03*
X168500000Y-126500000D03*
X163500000Y-126500000D03*
X156000000Y-126500000D03*
X151000000Y-126500000D03*
D17*
X168000000Y-119500000D03*
D18*
X164200000Y-119500000D03*
D17*
X155500000Y-119500000D03*
D18*
X151700000Y-119500000D03*
D16*
X166500000Y-106000000D03*
X166500000Y-111000000D03*
X155000000Y-106500000D03*
X155000000Y-111500000D03*
D17*
X178750000Y-115750000D03*
D18*
X182550000Y-115750000D03*
D17*
X189750000Y-115750000D03*
D18*
X193550000Y-115750000D03*
D15*
X155500000Y-197000000D03*
D19*
X163120000Y-197000000D03*
D20*
X155300000Y-153450000D03*
D21*
X157840000Y-153450000D03*
D20*
X158250000Y-111750000D03*
D21*
X160790000Y-111750000D03*
D22*
X147500000Y-197000000D03*
D23*
X144960000Y-197000000D03*
X142420000Y-197000000D03*
X139880000Y-197000000D03*
D22*
X157500000Y-129500000D03*
D23*
X160040000Y-129500000D03*
X162580000Y-129500000D03*
D22*
X188750000Y-139250000D03*
D23*
X186210000Y-139250000D03*
D22*
X107500000Y-182500000D03*
D23*
X107500000Y-179960000D03*
X107500000Y-177420000D03*
X107500000Y-174880000D03*
D22*
X163250000Y-105750000D03*
D23*
X160710000Y-105750000D03*
X158170000Y-105750000D03*
D22*
X183750000Y-104750000D03*
D23*
X186290000Y-104750000D03*
X188830000Y-104750000D03*
D24*
X113550000Y-127050000D03*
D25*
X113550000Y-114850000D03*
X101500000Y-114800000D03*
D24*
X101550000Y-127050000D03*
D25*
X107500000Y-129000000D03*
D24*
X167950000Y-197050000D03*
D25*
X180150000Y-197050000D03*
X180200000Y-185000000D03*
D24*
X167950000Y-185050000D03*
D25*
X166000000Y-191000000D03*
D26*
X157230000Y-192730000D03*
X158500000Y-191460000D03*
D27*
X158500000Y-194000000D03*
D26*
X189480000Y-125020000D03*
X188210000Y-123750000D03*
D27*
X190750000Y-123750000D03*
D28*
X137310000Y-104500000D03*
X134770000Y-104500000D03*
X132230000Y-104500000D03*
X129690000Y-104500000D03*
X136000000Y-177190000D03*
X136000000Y-179730000D03*
X136000000Y-182270000D03*
X136000000Y-184810000D03*
X104000000Y-171190000D03*
X104000000Y-173730000D03*
X104000000Y-176270000D03*
X104000000Y-178810000D03*
D21*
X162430000Y-164610000D03*
X139570000Y-164610000D03*
X162430000Y-167150000D03*
X139570000Y-167150000D03*
X162430000Y-169690000D03*
X139570000Y-169690000D03*
X162430000Y-172230000D03*
X139570000Y-172230000D03*
X162430000Y-174770000D03*
X139570000Y-174770000D03*
X162430000Y-177310000D03*
X139570000Y-177310000D03*
X162430000Y-179850000D03*
X139570000Y-179850000D03*
X162430000Y-182390000D03*
X139570000Y-182390000D03*
D29*
X197200000Y-174500000D03*
X197200000Y-169500000D03*
X167800000Y-179700000D03*
X167800000Y-164300000D03*
D15*
X193750000Y-135750000D03*
D19*
X186130000Y-128130000D03*
X193750000Y-133210000D03*
X186130000Y-130670000D03*
X193750000Y-130670000D03*
X186130000Y-133210000D03*
X193750000Y-128130000D03*
X186130000Y-135750000D03*
D30*
X129700000Y-183000000D03*
D14*
X129700000Y-181000000D03*
X129700000Y-179000000D03*
X129700000Y-177000000D03*
X129700000Y-175000000D03*
X129700000Y-173000000D03*
X129700000Y-171000000D03*
X129700000Y-169000000D03*
X114300000Y-169000000D03*
X114400000Y-171000000D03*
X114300000Y-173000000D03*
X114300000Y-175000000D03*
X114300000Y-177000000D03*
X114300000Y-179000000D03*
X114300000Y-181000000D03*
X114300000Y-183000000D03*
D13*
X127010000Y-167300000D03*
X125010000Y-167300000D03*
X123010000Y-167300000D03*
X121010000Y-167300000D03*
X119010000Y-167300000D03*
X117010000Y-167300000D03*
D31*
X194480000Y-104750000D03*
X193210000Y-104750000D03*
D32*
X195750000Y-104750000D03*
D33*
X171250000Y-108750000D03*
X171250000Y-106210000D03*
X171250000Y-111290000D03*
X151250000Y-108750000D03*
X151250000Y-106210000D03*
X151250000Y-111290000D03*
D34*
X115001260Y-195000000D03*
X104998740Y-195000000D03*
D22*
X118000000Y-197000000D03*
X123000000Y-140000000D03*
D29*
X107500000Y-164300000D03*
X112500000Y-164300000D03*
X102300000Y-193700000D03*
X117700000Y-193700000D03*
D22*
X118500000Y-140000000D03*
X102000000Y-197000000D03*
X143000000Y-103000000D03*
X130500000Y-133000000D03*
X167500000Y-159500000D03*
X135500000Y-167000000D03*
X171500000Y-159500000D03*
X135500000Y-171000000D03*
X159500000Y-180000000D03*
X130000000Y-194500000D03*
X126500000Y-194500000D03*
X107500000Y-187000000D03*
X198250000Y-104750000D03*
X107500000Y-190500000D03*
X143000000Y-188500000D03*
X111000000Y-180500000D03*
X139500000Y-188500000D03*
X111000000Y-184000000D03*
D35*
X193500000Y-191920000D03*
D34*
X193500000Y-197000000D03*
D35*
X193500000Y-194460000D03*
D36*
X196040000Y-197000000D03*
X196040000Y-194460000D03*
X196040000Y-191920000D03*
D15*
X103500000Y-134000000D03*
D19*
X111120000Y-134000000D03*
D22*
X126500000Y-133000000D03*
X123500000Y-102500000D03*
X120000000Y-102500000D03*
D11*
X130000000Y-154500000D03*
D37*
X107500000Y-102750000D03*
X111000120Y-102750000D03*
X103999880Y-102750000D03*
D21*
X186500000Y-197000000D03*
X187900000Y-189500000D03*
X107500000Y-159000000D03*
X115000000Y-160400000D03*
X111250000Y-109000000D03*
X103750000Y-107600000D03*
D38*
X104000000Y-154000000D03*
D24*
X104000000Y-159000000D03*
M02*
