G04 #@! TF.FileFunction,Legend,Bot*
%FSLAX46Y46*%
G04 Gerber Fmt 4.6, Leading zero omitted, Abs format (unit mm)*
G04 Created by KiCad (PCBNEW 4.0.7) date 03/03/18 20:57:52*
%MOMM*%
%LPD*%
G01*
G04 APERTURE LIST*
%ADD10C,0.100000*%
%ADD11C,0.127000*%
G04 APERTURE END LIST*
D10*
D11*
X120000000Y-196000000D02*
X100000000Y-196000000D01*
X100000000Y-162000000D02*
X120000000Y-162000000D01*
X120000000Y-162000000D02*
X120000000Y-196000000D01*
X100000000Y-196000000D02*
X100000000Y-162000000D01*
X101182571Y-160802714D02*
X101182571Y-161419571D01*
X101146286Y-161492143D01*
X101110000Y-161528429D01*
X101037429Y-161564714D01*
X100892286Y-161564714D01*
X100819714Y-161528429D01*
X100783429Y-161492143D01*
X100747143Y-161419571D01*
X100747143Y-160802714D01*
X100348000Y-161564714D02*
X100202857Y-161564714D01*
X100130285Y-161528429D01*
X100094000Y-161492143D01*
X100021428Y-161383286D01*
X99985143Y-161238143D01*
X99985143Y-160947857D01*
X100021428Y-160875286D01*
X100057714Y-160839000D01*
X100130285Y-160802714D01*
X100275428Y-160802714D01*
X100348000Y-160839000D01*
X100384285Y-160875286D01*
X100420571Y-160947857D01*
X100420571Y-161129286D01*
X100384285Y-161201857D01*
X100348000Y-161238143D01*
X100275428Y-161274429D01*
X100130285Y-161274429D01*
X100057714Y-161238143D01*
X100021428Y-161201857D01*
X99985143Y-161129286D01*
X121344714Y-176079001D02*
X120582714Y-176079001D01*
X120945571Y-176079001D02*
X120945571Y-176514429D01*
X121344714Y-176514429D02*
X120582714Y-176514429D01*
X121344714Y-177240144D02*
X121344714Y-176877287D01*
X120582714Y-176877287D01*
X121344714Y-177494144D02*
X120582714Y-177494144D01*
X121344714Y-177929572D02*
X120909286Y-177603001D01*
X120582714Y-177929572D02*
X121018143Y-177494144D01*
X121054429Y-178256144D02*
X121054429Y-178836715D01*
X121344714Y-179199573D02*
X120582714Y-179199573D01*
X120582714Y-179489858D01*
X120619000Y-179562430D01*
X120655286Y-179598715D01*
X120727857Y-179635001D01*
X120836714Y-179635001D01*
X120909286Y-179598715D01*
X120945571Y-179562430D01*
X120981857Y-179489858D01*
X120981857Y-179199573D01*
X121344714Y-179961573D02*
X120582714Y-179961573D01*
X121127000Y-180215573D01*
X120582714Y-180469573D01*
X121344714Y-180469573D01*
X120582714Y-180977572D02*
X120582714Y-181050144D01*
X120619000Y-181122715D01*
X120655286Y-181159001D01*
X120727857Y-181195287D01*
X120873000Y-181231572D01*
X121054429Y-181231572D01*
X121199571Y-181195287D01*
X121272143Y-181159001D01*
X121308429Y-181122715D01*
X121344714Y-181050144D01*
X121344714Y-180977572D01*
X121308429Y-180905001D01*
X121272143Y-180868715D01*
X121199571Y-180832430D01*
X121054429Y-180796144D01*
X120873000Y-180796144D01*
X120727857Y-180832430D01*
X120655286Y-180868715D01*
X120619000Y-180905001D01*
X120582714Y-180977572D01*
X120582714Y-181485572D02*
X120582714Y-181957286D01*
X120873000Y-181703286D01*
X120873000Y-181812144D01*
X120909286Y-181884715D01*
X120945571Y-181921001D01*
X121018143Y-181957286D01*
X121199571Y-181957286D01*
X121272143Y-181921001D01*
X121308429Y-181884715D01*
X121344714Y-181812144D01*
X121344714Y-181594429D01*
X121308429Y-181521858D01*
X121272143Y-181485572D01*
M02*
