M48
INCH,TZ
T1C0.016
T2C0.024
T3C0.026
T4C0.031
T5C0.035
T6C0.039
T7C0.039
T8C0.040
T9C0.043
T10C0.045
T11C0.047
T12C0.049
T13C0.051
%
G90
G05
T1
X43307Y-69291
X44488Y-54331
X49016Y-45669
X49409Y-43898
X50394Y-45669
X52815Y-71201
X54665Y-75787
X60689Y-68130
X60748Y-65472
X61280Y-68819
X61358Y-66181
X71161Y-47933
X72736Y-48720
T2
X61902Y-75878
X62402Y-75378
X62402Y-76378
X74098Y-48720
X74598Y-49220
X75098Y-48720
X76067Y-41240
X76567Y-41240
X77067Y-41240
T3
X45276Y-66535
X45276Y-67323
X45276Y-68110
X45276Y-68898
X45276Y-69685
X45276Y-70472
X45276Y-71260
X45276Y-72047
X46067Y-66142
X46854Y-66142
X47642Y-66142
X48429Y-66142
X49217Y-66142
X49803Y-45079
X49803Y-50591
X50004Y-66142
X50591Y-45079
X50591Y-50591
X50787Y-66535
X50787Y-67323
X50787Y-68110
X50787Y-68898
X50787Y-69685
X50787Y-70472
X50787Y-71260
X50787Y-72047
X51378Y-45079
X51378Y-50591
X52165Y-45079
X52165Y-50591
X52953Y-45079
X52953Y-50591
X53740Y-45079
X53740Y-50591
X54528Y-45079
X54528Y-50591
X55315Y-45079
X55315Y-50591
X55709Y-45870
X55709Y-46657
X55709Y-47445
X55709Y-48232
X55709Y-49020
X55709Y-49807
T4
X40748Y-52756
X40846Y-42362
X40945Y-67398
X40945Y-68398
X40945Y-69398
X40945Y-70398
X42323Y-62598
X43748Y-52756
X43799Y-42913
X45276Y-63150
X51059Y-41142
X52059Y-41142
X53059Y-41142
X53543Y-69760
X53543Y-70760
X53543Y-71760
X53543Y-72760
X54059Y-41142
X59449Y-49803
X61024Y-41929
X61024Y-43898
X61220Y-77559
X61417Y-49803
X64220Y-77559
X64370Y-49803
X65551Y-41732
X65551Y-43701
X66339Y-49803
X70472Y-61417
X70472Y-62402
X73280Y-50445
X73280Y-51445
X73280Y-52445
X73280Y-53445
X73425Y-77559
X73976Y-74606
X76280Y-50445
X76280Y-51445
X76280Y-52445
X76280Y-53445
T5
X61142Y-60413
X62142Y-60413
X62303Y-43996
X63303Y-43996
T6
X39980Y-50020
X40157Y-77559
X42323Y-68850
X42323Y-69850
X42323Y-70850
X42323Y-71850
X42323Y-73622
X42323Y-75000
X43701Y-71063
X43701Y-72441
X44705Y-50020
X46457Y-77559
X46654Y-55118
X47244Y-40354
X48425Y-55118
X48622Y-40354
X49803Y-52362
X49803Y-76575
X51181Y-76575
X51378Y-52362
X53346Y-65748
X53346Y-67323
X54921Y-74213
X55071Y-77559
X56071Y-77559
X56299Y-40551
X56299Y-74213
X57071Y-77559
X58071Y-77559
X59724Y-47047
X61220Y-47047
X62008Y-50984
X62272Y-41634
X62795Y-70866
X63008Y-50984
X63272Y-41634
X64008Y-50984
X64272Y-41634
X64646Y-47047
X65945Y-62795
X66122Y-72854
X66122Y-77579
X66142Y-47047
X67520Y-62795
X70374Y-45571
X71870Y-45571
X72343Y-41240
X73311Y-54823
X73343Y-41240
X74311Y-54823
X74343Y-41240
X74705Y-45571
X76201Y-45571
X78051Y-41240
T7
X41338Y-76772
X45276Y-76772
T8
X54949Y-64807
X54949Y-65807
X54949Y-66807
X54949Y-67807
X54949Y-68807
X54949Y-69807
X54949Y-70807
X54949Y-71807
X63949Y-64807
X63949Y-65807
X63949Y-66807
X63949Y-67807
X63949Y-68807
X63949Y-69807
X63949Y-70807
X63949Y-71807
T9
X76181Y-75559
X76181Y-76559
X76181Y-77559
T10
X59547Y-41815
X59547Y-42815
X59547Y-43815
X67421Y-41815
X67421Y-42815
X67421Y-43815
T11
X40945Y-40453
X42323Y-40453
X43701Y-40453
T12
X40276Y-76260
X42323Y-64685
X44291Y-64685
X46339Y-76260
X66063Y-64685
X66063Y-70748
X77638Y-66732
X77638Y-68701
T13
X39961Y-45197
X40945Y-60630
X40945Y-62598
X42323Y-50787
X44705Y-45217
X65354Y-75197
X70925Y-77579
X70945Y-72835
T0
M30
