G04 #@! TF.FileFunction,Profile,NP*
%FSLAX46Y46*%
G04 Gerber Fmt 4.6, Leading zero omitted, Abs format (unit mm)*
G04 Created by KiCad (PCBNEW 4.0.7) date 03/03/18 20:57:52*
%MOMM*%
%LPD*%
G01*
G04 APERTURE LIST*
%ADD10C,0.100000*%
%ADD11C,1.000000*%
%ADD12C,0.150000*%
G04 APERTURE END LIST*
D10*
D11*
X100166666Y-201000000D02*
G75*
G03X100166666Y-201000000I-1666666J0D01*
G01*
X96000000Y-201000000D02*
X101000000Y-201000000D01*
X98500000Y-198500000D02*
X98500000Y-203500000D01*
X200000000Y-144500000D02*
X159750000Y-144500000D01*
X145500000Y-145000000D02*
X145500000Y-100000000D01*
D12*
X147750000Y-145000000D02*
X145000000Y-145000000D01*
X147750000Y-144750000D02*
X147750000Y-145000000D01*
X100000000Y-144500000D02*
X100000000Y-144250000D01*
X100000000Y-144250000D02*
X100000000Y-144500000D01*
D11*
X130000000Y-144250000D02*
X100000000Y-144250000D01*
D12*
X117500000Y-119000000D02*
X117500000Y-100000000D01*
X116500000Y-119000000D02*
X117500000Y-119000000D01*
X116500000Y-100000000D02*
X116500000Y-119000000D01*
X146000000Y-200000000D02*
X145000000Y-200000000D01*
D11*
X133000000Y-152000000D02*
X133000000Y-200000000D01*
D12*
X146000000Y-100000000D02*
X145000000Y-100000000D01*
X145000000Y-145000000D02*
X146000000Y-145000000D01*
X145000000Y-100000000D02*
X145000000Y-145000000D01*
X100000000Y-200000000D02*
X100000000Y-100000000D01*
X200000000Y-200000000D02*
X100000000Y-200000000D01*
X200000000Y-100000000D02*
X200000000Y-200000000D01*
X100000000Y-100000000D02*
X200000000Y-100000000D01*
M02*
